<svg xmlns="http://www.w3.org/2000/svg" version="1.1" width="1024" height="1024"><path d="M0 0 C1.72445595 -0.0129007 1.72445595 -0.0129007 3.48374939 -0.02606201 C5.37736458 -0.03245193 5.37736458 -0.03245193 7.30923462 -0.03897095 C8.65130322 -0.04687398 9.9933697 -0.05514305 11.33543396 -0.06375122 C15.74285866 -0.08994231 20.15029275 -0.10527328 24.55776978 -0.11953735 C26.07541535 -0.12489773 27.59306087 -0.13027524 29.11070633 -0.13566971 C35.42276626 -0.15729179 41.73482366 -0.17602935 48.04691124 -0.1872921 C57.09241288 -0.20353891 66.13748553 -0.23674159 75.18282545 -0.29369295 C81.5438457 -0.33237856 87.90475113 -0.35192296 94.26588595 -0.35721266 C98.06513114 -0.36086732 101.86391848 -0.37290015 105.66303635 -0.4053154 C109.23696167 -0.43537343 112.81015153 -0.44171669 116.38417625 -0.42993164 C118.31914016 -0.42960547 120.25405852 -0.45408499 122.18885803 -0.47930908 C131.65038105 -0.41118212 131.65038105 -0.41118212 134.79425049 2.5223999 C136.47183228 5.15390015 136.47183228 5.15390015 136.40933228 7.84140015 C135.47183228 10.15390015 135.47183228 10.15390015 133.47183228 12.15390015 C130.16653687 13.30003166 126.88262816 13.31869011 123.40933228 13.46640015 C116.21882967 14.01578686 109.14194174 14.96282104 103.52651978 19.8453064 C96.84874725 27.82959963 97.1780905 38.22093549 97.24478149 48.1211853 C97.24448944 49.27356689 97.24419739 50.42594849 97.24389648 51.61325073 C97.24528032 55.38990026 97.26079693 59.16634795 97.27651978 62.94296265 C97.28025327 65.57425834 97.28309865 68.20555544 97.28509521 70.83685303 C97.29128533 77.03434853 97.30766232 83.23177258 97.32779419 89.42923677 C97.35023054 96.49099289 97.36116598 103.55275262 97.37118506 110.61453557 C97.39203105 125.12769377 97.42715846 139.64079596 97.47183228 154.15390015 C98.72746226 153.2216681 99.98175482 152.28763454 101.23550415 151.35287476 C101.93413574 150.83293442 102.63276733 150.31299408 103.35256958 149.77729797 C106.68020799 147.22826006 109.82462072 144.482841 112.97183228 141.71640015 C113.62909302 141.14220337 114.28635376 140.56800659 114.96353149 139.97640991 C116.24557999 138.85600825 117.52671553 137.73456077 118.80679321 136.61190796 C120.12023199 135.46178239 121.43951169 134.31832714 122.76089478 133.17733765 C134.06900986 123.409051 144.76721822 113.02201499 155.31265259 102.44345093 C157.36196739 100.38872507 159.4166449 98.33946912 161.47183228 96.2906189 C162.80288253 94.95890849 164.13362289 93.62688827 165.46401978 92.29452515 C166.06519623 91.69537292 166.66637268 91.0962207 167.2857666 90.47891235 C174.75091425 83.40257642 174.75091425 83.40257642 180.51086426 75.04507446 C181.73531512 72.63536886 183.55491457 71.4716682 185.63980103 69.81796265 C188.86376589 66.88958518 191.46532048 63.44601498 194.17105103 60.04452515 C195.62398253 58.21911035 197.10280435 56.41374347 198.61636353 54.63827515 C205.06066378 46.9987605 211.35115378 38.49897324 210.87808228 28.09140015 C210.41146675 25.86600303 209.54985332 24.14823908 208.47183228 22.15390015 C208.22433228 21.47327515 207.97683228 20.79265015 207.72183228 20.09140015 C205.82433044 17.1502723 203.69809267 16.49161787 200.47183228 15.15390015 C196.44522372 14.37931251 192.36471101 13.98370128 188.28433228 13.60116577 C182.16750626 12.83415052 182.16750626 12.83415052 179.99624634 10.71102905 C178.88589478 9.0484314 178.88589478 9.0484314 177.47183228 6.15390015 C178.41982433 3.78392001 179.04636477 2.42350169 181.23252201 1.03822231 C183.82342447 0.01505348 185.76768654 -0.1057036 188.55079651 -0.12025452 C189.57559616 -0.13022964 190.60039581 -0.14020477 191.65625 -0.15048218 C192.77480377 -0.15114685 193.89335754 -0.15181152 195.04580688 -0.15249634 C196.81953926 -0.16498161 196.81953926 -0.16498161 198.62910461 -0.17771912 C201.86880149 -0.19768421 205.10834931 -0.20845912 208.34809947 -0.21354556 C210.37302882 -0.21719154 212.39793353 -0.22343277 214.42285347 -0.23054695 C221.48956511 -0.25503 228.55620344 -0.26809135 235.62295532 -0.27163696 C242.20669351 -0.27527384 248.78996599 -0.30518241 255.3735618 -0.34704155 C261.02974097 -0.38174145 266.68576572 -0.39718532 272.34205061 -0.397883 C275.71874221 -0.39867578 279.09495899 -0.40741415 282.47154045 -0.43588066 C286.23759659 -0.46267628 290.00236099 -0.45800366 293.76846313 -0.44546509 C294.88499268 -0.46029938 296.00152222 -0.47513367 297.15188599 -0.49041748 C305.56763497 -0.41045758 305.56763497 -0.41045758 308.70329285 2.52339172 C310.47183228 5.15390015 310.47183228 5.15390015 310.47183228 7.84140015 C309.47183228 10.15390015 309.47183228 10.15390015 306.47183228 12.15390015 C304.51748657 12.65292358 304.51748657 12.65292358 302.29605103 13.01327515 C301.47403198 13.15652222 300.65201294 13.29976929 299.80508423 13.44735718 C298.93198608 13.59801636 298.05888794 13.74867554 297.15933228 13.90390015 C288.38233917 15.5285928 280.31768987 17.78816063 272.47183228 22.15390015 C272.14183228 22.81390015 271.81183228 23.47390015 271.47183228 24.15390015 C270.77702759 24.2724939 270.0822229 24.39108765 269.36636353 24.51327515 C265.4842647 25.37247111 262.47419605 27.2993405 259.15933228 29.40390015 C258.46219116 29.84427612 257.76505005 30.2846521 257.04678345 30.7383728 C245.1883747 38.40809629 234.64271492 47.76856524 224.38198853 57.42733765 C221.78272203 59.86262357 219.14587839 62.23894442 216.47183228 64.59140015 C211.35950952 69.11812957 206.74998474 73.90398594 202.31558228 79.09140015 C200.12261526 81.54454969 197.81366704 83.84175061 195.47183228 86.15390015 C192.84396474 88.75518728 190.22000929 91.3603841 187.59683228 93.96640015 C186.57396118 94.97670288 186.57396118 94.97670288 185.53042603 96.00741577 C181.50442534 100.01424503 177.66647113 104.11872314 173.9737854 108.43539429 C171.91829473 110.78724716 169.67987928 112.94585314 167.47183228 115.15390015 C165.76491963 117.12413816 164.11777449 119.13174256 162.47183228 121.15390015 C164.13777622 124.84213969 166.41733314 128.01922014 168.78433228 131.27890015 C169.22092163 131.88435669 169.65751099 132.48981323 170.10733032 133.11361694 C171.05843609 134.4320555 172.01071423 135.74964893 172.96401978 137.0664978 C174.50445227 139.19905899 176.03582347 141.33789072 177.56558228 143.4781189 C183.51000635 151.77702254 189.57701677 159.95936625 195.80923462 168.04428101 C199.51080753 172.85945798 203.08696701 177.74522598 206.59365845 182.70346069 C214.02411566 193.19605862 221.64869998 203.56124441 229.53433228 213.71640015 C233.46403005 218.78177413 237.23475432 223.94505004 240.97183228 229.15390015 C245.52396405 235.4976738 250.17205267 241.73570581 254.96011353 247.90390015 C257.75023779 251.5017792 260.49001687 255.13662845 263.22183228 258.77890015 C263.96505737 259.76950439 263.96505737 259.76950439 264.72329712 260.78012085 C268.12683464 265.32846493 271.49074463 269.90473713 274.84487915 274.48959351 C289.78927594 294.88933858 302.66742385 310.67950508 327.47183228 318.15390015 C328.72183228 324.77890015 328.72183228 324.77890015 326.47183228 328.15390015 C324.54846191 328.55262756 324.54846191 328.55262756 322.16275024 328.58627319 C321.26514984 328.60606735 320.36754944 328.62586151 319.44274902 328.64625549 C317.96827805 328.65584038 317.96827805 328.65584038 316.46401978 328.6656189 C314.91740158 328.6925457 314.91740158 328.6925457 313.33953857 328.72001648 C310.008681 328.77428609 306.67795619 328.80785238 303.34683228 328.84140015 C301.21790541 328.87460894 299.08899816 328.90910184 296.96011353 328.94491577 C280.1842464 329.20607599 263.40704233 329.2012871 246.62965393 329.1588707 C244.43214975 329.15380874 242.23464762 329.15034506 240.03713989 329.1472168 C231.69556315 329.13389682 223.35463264 329.09828814 215.01337814 329.02180195 C211.14893685 328.98693255 207.28492563 328.96231107 203.4203186 328.95834351 C199.58349234 328.9540788 195.74754227 328.92587929 191.91098976 328.88046837 C190.47052916 328.8675439 189.02996405 328.86316773 187.58945274 328.86774635 C185.60575163 328.87261606 183.62205311 328.84381225 181.63858032 328.81332397 C180.51598312 328.80666214 179.39338593 328.80000031 178.23677063 328.7931366 C175.47183228 328.15390015 175.47183228 328.15390015 173.58641052 325.61268616 C173.2185997 324.80128677 172.85078888 323.98988739 172.47183228 323.15390015 C174.03505068 319.65964725 174.90452455 318.37387661 178.53433228 316.96640015 C179.84091162 316.66831062 181.15460665 316.40072721 182.47183228 316.15390015 C184.22208747 315.8219094 185.97207869 315.48852456 187.72183228 315.15390015 C188.55198853 315.00952515 189.38214478 314.86515015 190.23745728 314.71640015 C192.73505485 314.22020906 192.73505485 314.22020906 195.47183228 312.15390015 C197.00307803 307.44297569 195.98890319 304.62945047 194.10073853 300.2281189 C190.8796807 294.14904814 186.81019208 288.6127099 182.8097229 283.02792358 C180.98015436 280.46519218 179.19732683 277.87074099 177.40933228 275.27890015 C175.84023787 273.01541433 174.42174617 271.10381404 172.47183228 269.15390015 C170.50442142 266.62661439 168.71072554 264.02926259 166.97183228 261.34140015 C164.01770282 256.90278353 160.95842962 252.54546677 157.84683228 248.21640015 C157.37954712 247.55341919 156.91226196 246.89043823 156.43081665 246.20736694 C153.84303543 242.5219087 153.84303543 242.5219087 150.19839478 240.0249939 C149.62862915 239.73753296 149.05886353 239.45007202 148.47183228 239.15390015 C148.32681274 238.3949646 148.18179321 237.63602905 148.03237915 236.85409546 C147.42484112 233.92754029 146.5477294 232.4573472 144.77651978 230.0796814 C143.95437988 228.96085571 143.95437988 228.96085571 143.1156311 227.81942749 C142.53192749 227.04292847 141.94822388 226.26642944 141.34683228 225.46640015 C140.15991732 223.86146143 138.97371431 222.25599594 137.78823853 220.6499939 C137.21605591 219.87897339 136.64387329 219.10795288 136.05435181 218.31356812 C133.51420521 214.84702434 131.12096062 211.28701973 128.74136353 207.70858765 C128.32241821 207.19554077 127.9034729 206.6824939 127.47183228 206.15390015 C126.81183228 206.15390015 126.15183228 206.15390015 125.47183228 206.15390015 C124.91689087 204.67856812 124.91689087 204.67856812 124.35073853 203.1734314 C122.37124799 198.55771975 119.4676826 194.79344805 116.40933228 190.84140015 C115.5962561 189.76922241 115.5962561 189.76922241 114.76675415 188.67538452 C112.75552494 186.03766611 110.81970606 183.50177393 108.47183228 181.15390015 C107.49100256 179.75271483 106.5354473 178.33370749 105.59683228 176.90390015 C105.06831665 176.1046814 104.53980103 175.30546265 103.99526978 174.48202515 C103.0776839 173.07976571 102.16473567 171.67443318 101.26089478 170.26327515 C99.3637704 167.19162702 99.3637704 167.19162702 96.47183228 165.15390015 C96.57963768 166.77774879 96.57963768 166.77774879 96.68962097 168.43440247 C97.45860278 180.85656466 97.58184655 193.2300316 97.51643181 205.67308235 C97.49873224 209.15126594 97.48864833 212.6294018 97.48051453 216.10762024 C97.45631419 225.98108406 97.42034818 235.85448205 97.37588501 245.72787476 C97.34903633 251.80574059 97.33204279 257.8835708 97.32101631 263.96148491 C97.31483888 266.2614621 97.30487464 268.56143255 97.29093742 270.86137581 C97.27161617 274.07359463 97.26481169 277.28562498 97.26065063 280.49789429 C97.24750824 281.8999839 97.24750824 281.8999839 97.23410034 283.33039856 C97.24717604 292.21955106 98.04526224 300.87087194 103.47183228 308.15390015 C110.4841175 314.80379337 121.14590065 315.50373555 130.31167603 316.62265015 C133.47183228 317.15390015 133.47183228 317.15390015 135.47183228 318.90390015 C136.75316624 321.78690156 136.48233746 323.20011576 135.47183228 326.15390015 C132.60045617 329.02527625 129.68528204 328.52885918 125.82730103 328.6031189 C124.57843361 328.63654137 124.57843361 328.63654137 123.30433655 328.67063904 C120.42279516 328.74097742 117.54131766 328.79270167 114.65933228 328.84140015 C113.65303772 328.8606958 112.64674316 328.87999146 111.60995483 328.89987183 C87.1778383 329.34381056 62.73877048 329.13372021 38.30521011 328.92895889 C35.08939153 328.90384203 31.87357745 328.8839769 28.65771484 328.86541748 C23.53242649 328.8347861 18.40750463 328.78854275 13.28245735 328.73034477 C11.36158729 328.71073553 9.44065932 328.69612101 7.51971245 328.68666267 C4.87008339 328.67244234 2.22131605 328.63971748 -0.42807007 328.60214233 C-1.21001645 328.60200984 -1.99196283 328.60187735 -2.79760456 328.60174084 C-8.01506273 328.49978186 -8.01506273 328.49978186 -10.51098633 326.81729126 C-12.1119971 324.19916719 -11.90894636 322.13666616 -11.52816772 319.15390015 C-7.28282032 316.32366855 -3.37164225 316.71873346 1.63589478 316.49765015 C2.57175415 316.38421265 3.50761353 316.27077515 4.47183228 316.15390015 C4.80183228 315.49390015 5.13183228 314.83390015 5.47183228 314.15390015 C6.31745728 314.05077515 7.16308228 313.94765015 8.03433228 313.84140015 C13.76951318 312.69436397 17.89717042 309.85287741 21.84683228 305.59140015 C27.44165892 293.75618993 25.74768382 279.06576 25.7147522 266.32406616 C25.71582637 263.90992176 25.71776705 261.49577761 25.72050476 259.08163452 C25.7248344 253.22746072 25.71993803 247.37334883 25.71065446 241.51918191 C25.7002152 234.68790114 25.70034212 227.85663233 25.70082704 221.02534508 C25.70132659 208.82786908 25.69219559 196.63041939 25.67764282 184.43295288 C25.66356072 172.62370321 25.65647203 160.81447669 25.65713501 149.00521851 C25.65717497 148.27793352 25.65721492 147.55064854 25.65725609 146.80132461 C25.65729644 146.0752409 25.6573368 145.34915719 25.65737838 144.60107094 C25.65807014 131.11950069 25.65216681 117.63794018 25.64322516 104.1563731 C25.64022204 99.40591531 25.63914717 94.65545932 25.63869286 89.90500069 C25.63768419 83.49863511 25.63154494 77.09229359 25.62152672 70.68593597 C25.61861978 68.34189184 25.61737266 65.99784493 25.61795425 63.65379906 C27.06050209 40.76883537 27.06050209 40.76883537 19.47183228 20.15390015 C16.90305355 18.85743578 16.90305355 18.85743578 14.47183228 18.15390015 C14.47183228 17.49390015 14.47183228 16.83390015 14.47183228 16.15390015 C11.97240024 15.67160683 9.47234984 15.19300589 6.97183228 14.71640015 C6.27573853 14.58169312 5.57964478 14.44698608 4.86245728 14.30819702 C1.26475589 13.6253 -2.29071563 13.05599174 -5.93441772 12.6812439 C-9.52816772 12.15390015 -9.52816772 12.15390015 -11.52816772 10.15390015 C-12.08470483 4.92245138 -12.08470483 4.92245138 -10.21566772 2.34140015 C-6.91072771 0.01570162 -3.9058153 0.02174207 0 0 Z " fill="#292A2A" transform="translate(331.5281677246094,317.8460998535156)"></path><path d="M0 0 C3.3087112 2.05493856 6.1622172 4.33718647 9 7 C9.63808594 7.59683594 10.27617188 8.19367187 10.93359375 8.80859375 C19.13300624 17.29013656 22.34346871 28.39327717 22.21875 39.9609375 C21.24031849 53.55414666 15.81715004 63.75577512 6 73 C-2.67145864 79.8709066 -13.99426063 83.04816565 -25 82 C-33.40722913 80.59293236 -40.02457686 77.87152532 -47 73 C-48.051875 72.278125 -49.10375 71.55625 -50.1875 70.8125 C-59.26309166 61.73690834 -63.24050337 51.70188316 -63.4375 39.125 C-63.35892203 26.92171719 -59.5297463 16.48432198 -50.75390625 7.76953125 C-41.07592168 -0.9549573 -41.07592168 -0.9549573 -36 -2 C-35.1440625 -2.33128906 -34.288125 -2.66257812 -33.40625 -3.00390625 C-22.83774207 -6.09446763 -9.76016668 -4.95313848 0 0 Z " fill="#D1CBC0" transform="translate(728,562)"></path><path d="M0 0 C2 1 2 1 2.61696035 2.7786541 C3.01383667 5.0802424 3.12654197 7.20634723 3.12863445 9.54153442 C3.1318589 10.45271467 3.13508335 11.36389492 3.1384055 12.30268669 C3.1368569 13.2999534 3.1353083 14.29722012 3.13371277 15.32470703 C3.1371111 16.91818561 3.1371111 16.91818561 3.14057809 18.54385567 C3.14692486 22.11518556 3.14608829 25.68647758 3.14526367 29.2578125 C3.14825469 31.81345672 3.15165709 34.36910048 3.15544128 36.92474365 C3.16337049 43.15263155 3.16649613 49.38050549 3.16705366 55.60839796 C3.16752871 60.66929223 3.16958287 65.73018338 3.17275429 70.79107666 C3.18156021 85.13494038 3.18617364 99.47879662 3.18542381 113.82266307 C3.18538386 114.59596941 3.1853439 115.36927576 3.18530273 116.16601562 C3.18526185 116.94026422 3.18522097 117.71451281 3.18517885 118.51222348 C3.18477218 131.06727417 3.19434731 143.62229491 3.2084411 156.17733693 C3.2227934 169.06414644 3.22971195 181.95094131 3.22884732 194.83775902 C3.22851501 202.07465251 3.23127744 209.31151458 3.24202538 216.54840088 C3.25206365 223.35107992 3.25180682 230.15368143 3.24450874 236.95636749 C3.24345913 239.45738064 3.24584797 241.95839787 3.2518692 244.45940399 C3.25953875 247.86477969 3.25497781 251.26992261 3.24723816 254.67529297 C3.25238172 255.67255968 3.25752529 256.66982639 3.26282471 257.69731331 C3.25822592 258.60849356 3.25362712 259.51967381 3.24888897 260.45846558 C3.24910634 261.24459669 3.24932371 262.03072781 3.24954766 262.84068108 C3 265 3 265 1 269 C0.67 180.23 0.34 91.46 0 0 Z " fill="#050606" transform="translate(357,346)"></path><path d="M0 0 C1.65322266 0.01740234 1.65322266 0.01740234 3.33984375 0.03515625 C4.99693359 0.04869141 4.99693359 0.04869141 6.6875 0.0625 C7.54214844 0.07410156 8.39679687 0.08570313 9.27734375 0.09765625 C9.27734375 0.42765625 9.27734375 0.75765625 9.27734375 1.09765625 C5.64734375 1.75765625 2.01734375 2.41765625 -1.72265625 3.09765625 C-2.05265625 4.74765625 -2.38265625 6.39765625 -2.72265625 8.09765625 C71.03234375 8.59265625 71.03234375 8.59265625 146.27734375 9.09765625 C146.60734375 8.43765625 146.93734375 7.77765625 147.27734375 7.09765625 C147.27734375 8.41765625 147.27734375 9.73765625 147.27734375 11.09765625 C140.74261679 11.24507393 134.20777942 11.38668157 127.67285156 11.52490234 C125.46644472 11.57217796 123.26006236 11.62061519 121.05371094 11.67041016 C103.17911354 12.07254756 85.31247843 12.16334345 67.43427277 12.10396576 C65.23724857 12.09753896 63.04023163 12.09349074 60.84320068 12.09014893 C52.50143486 12.07673317 44.16033732 12.04205373 35.81889153 11.96555519 C31.95444959 11.93069069 28.09043772 11.90606718 24.22583008 11.90209961 C20.38900382 11.89783491 16.55305375 11.8696354 12.71650124 11.82422447 C11.27604064 11.8113 9.83547552 11.80692383 8.39496422 11.81150246 C6.41126311 11.81637217 4.42756458 11.78756835 2.4440918 11.75708008 C0.760196 11.74708733 0.760196 11.74708733 -0.9577179 11.7368927 C-3.72265625 11.09765625 -3.72265625 11.09765625 -5.608078 8.55644226 C-5.97588882 7.74504288 -6.34369965 6.93364349 -6.72265625 6.09765625 C-3.19416858 0.11456846 -3.19416858 0.11456846 0 0 Z " fill="#171616" transform="translate(510.72265625,634.90234375)"></path><path d="M0 0 C0.33 0.99 0.66 1.98 1 3 C-0.9772177 4.9772177 -4.84012596 4.28175457 -7.546875 4.3515625 C-8.79806877 4.38690346 -8.79806877 4.38690346 -10.07453918 4.42295837 C-12.96621851 4.49887552 -15.85798484 4.56322925 -18.75 4.625 C-19.7577951 4.64779022 -20.76559021 4.67058044 -21.80392456 4.69406128 C-61.85417054 5.54303779 -101.95059541 4.55919297 -142 4 C-142 3.34 -142 2.68 -142 2 C-140.91136831 1.99365209 -140.91136831 1.99365209 -139.80074406 1.98717594 C-122.16694511 1.8840115 -104.53318826 1.77539537 -86.89946079 1.66066074 C-78.37203423 1.60530907 -69.84460349 1.55182394 -61.31713867 1.50268555 C-53.88731118 1.45986746 -46.45751475 1.41359557 -39.02773517 1.36312145 C-35.09128504 1.3365013 -31.15484115 1.31164784 -27.21835518 1.29092598 C-23.51743655 1.2713897 -19.81657712 1.24725516 -16.11571121 1.21950912 C-14.10131571 1.20562843 -12.08688802 1.1966991 -10.07246399 1.18788147 C-8.8846936 1.17809265 -7.69692322 1.16830383 -6.47315979 1.15821838 C-5.4342991 1.15176583 -4.3954384 1.14531328 -3.32509708 1.1386652 C-1.03921798 1.2604702 -1.03921798 1.2604702 0 0 Z " fill="#161516" transform="translate(465,642)"></path><path d="M0 0 C0.66 0 1.32 0 2 0 C2.9645193 16.22430695 3.13258385 32.39473162 3.09765625 48.64453125 C3.09578601 51.23768588 3.09436498 53.83084086 3.09336853 56.42399597 C3.08997458 62.49006164 3.08213952 68.5561058 3.07201904 74.62216347 C3.06072878 81.54391881 3.05531537 88.46567517 3.05032361 95.38743746 C3.03995204 109.59163487 3.02243431 123.79581677 3 138 C0.58986827 135.58986827 0.04704259 133.93523081 -0.12304783 130.55374622 C-0.12212604 129.57572387 -0.12120424 128.59770151 -0.12025452 127.59004211 C-0.12162918 126.46683563 -0.12300385 125.34362915 -0.12442017 124.18638611 C-0.12082489 122.95352371 -0.11722961 121.72066132 -0.11352539 120.45043945 C-0.11374443 118.50394501 -0.11374443 118.50394501 -0.1139679 116.51812744 C-0.11425514 112.95848745 -0.10837019 109.39888107 -0.10139394 105.8392489 C-0.09514826 102.11965622 -0.09455564 98.40006281 -0.09336853 94.6804657 C-0.0902588 87.63632227 -0.08205023 80.59219434 -0.07201904 73.54805773 C-0.06084679 65.52879585 -0.05534465 57.50953322 -0.05032361 49.49026549 C-0.03986733 32.99350125 -0.02227481 16.4967526 0 0 Z " fill="#0A0A0A" transform="translate(426,481)"></path><path d="M0 0 C0.66 0 1.32 0 2 0 C3.26556267 9.76255293 3.145244 19.48723085 3.1328125 29.3125 C3.13348816 31.20890312 3.13446037 33.10530616 3.13571167 35.00170898 C3.13718203 38.97575709 3.13505924 42.94978265 3.13037109 46.92382812 C3.12473584 51.93719308 3.12800303 56.9505042 3.13382339 61.96386719 C3.15408433 82.66323384 3.11021012 103.32436408 2 124 C3.98 123.505 3.98 123.505 6 123 C5.505 123.99 5.505 123.99 5 125 C3.35 124.67 1.7 124.34 0 124 C0 83.08 0 42.16 0 0 Z " fill="#0C0D0D" transform="translate(426,350)"></path><path d="M0 0 C1.02927612 -0.00137466 2.05855225 -0.00274933 3.11901855 -0.00416565 C4.81941788 0.00122726 4.81941788 0.00122726 6.5541687 0.00672913 C7.74439636 0.0065831 8.93462402 0.00643707 10.16091919 0.00628662 C13.42930857 0.00686493 16.69765544 0.01188878 19.96603632 0.01886058 C23.3800046 0.02510135 26.79397367 0.02569849 30.20794678 0.02688599 C36.6748439 0.02999716 43.14172416 0.03820768 49.60861385 0.04823548 C56.97006559 0.05940323 64.33151813 0.06490874 71.69297624 0.06993091 C86.83795995 0.08039046 101.98292788 0.09798579 117.12789917 0.12025452 C117.12789917 0.45025452 117.12789917 0.78025452 117.12789917 1.12025452 C116.00370323 1.13571571 116.00370323 1.13571571 114.85679626 1.15148926 C107.80799463 1.24929977 100.75928043 1.35179027 93.71062565 1.45959377 C90.08648337 1.51485549 86.46233307 1.56828052 82.83810425 1.61756897 C79.34322818 1.66516484 75.84845297 1.71750562 72.35369682 1.77319527 C70.36556094 1.80361865 68.37735108 1.82907433 66.3891449 1.85449219 C64.58739052 1.88441002 64.58739052 1.88441002 62.74923706 1.91493225 C61.68556412 1.93047653 60.62189117 1.94602081 59.52598572 1.96203613 C57.17593989 1.85254004 57.17593989 1.85254004 56.12789917 3.12025452 C54.13438487 3.24394776 52.13653447 3.29821842 50.13937378 3.32557678 C48.21749489 3.35549461 48.21749489 3.35549461 46.25679016 3.38601685 C44.84794233 3.40300249 43.43909322 3.41988125 42.03024292 3.43666077 C40.59677012 3.45722367 39.16330348 3.47821996 37.72984314 3.49963379 C33.95036797 3.55492311 30.17083747 3.60430197 26.39126587 3.65248108 C22.53715062 3.70264617 18.68311608 3.75835823 14.82907104 3.81361389 C7.26208203 3.92127931 -0.30497393 4.02270548 -7.87210083 4.12025452 C-7.54210083 3.13025452 -7.21210083 2.14025452 -6.87210083 1.12025452 C-4.39667647 -0.11745766 -2.76927847 -0.0028432 0 0 Z " fill="#3B3B3B" transform="translate(519.8721008300781,317.87974548339844)"></path><path d="M0 0 C2 1 2 1 2.61748409 2.82126236 C3.24595086 6.40088918 3.12945093 10.00136358 3.11352539 13.62402344 C3.11367142 14.49267532 3.11381744 15.36132721 3.1139679 16.25630188 C3.11327191 19.12401843 3.10549415 21.99166981 3.09765625 24.859375 C3.09579096 26.8490597 3.09436758 28.83874485 3.09336853 30.82843018 C3.08955212 36.06285879 3.07972929 41.29725961 3.06866455 46.53167725 C3.05843162 51.87397892 3.05386687 57.21628509 3.04882812 62.55859375 C3.03810626 73.0390747 3.02104032 83.51953504 3 94 C2.67 94 2.34 94 2 94 C1.98969254 93.27575836 1.97938507 92.55151672 1.96876526 91.80532837 C1.86974442 84.89428883 1.76710696 77.98331085 1.66066074 71.07238197 C1.60609006 67.52158676 1.55279538 63.97078306 1.50268555 60.41992188 C1.22585961 39.53100198 1.22585961 39.53100198 0.20507812 18.66796875 C-0.14277815 12.44631081 -0.0826912 6.22940404 0 0 Z " fill="#0A0A0A" transform="translate(357,346)"></path><path d="M0 0 C0.639375 0.70125 1.27875 1.4025 1.9375 2.125 C2.94398331 3.09839345 3.96652169 4.05531696 5 5 C5.55042969 5.50402344 6.10085938 6.00804687 6.66796875 6.52734375 C12.70277615 11.26123459 19.22111361 12.41331518 26.61181641 13.70727539 C27.42054199 13.85028076 28.22926758 13.99328613 29.0625 14.140625 C29.79597656 14.25954102 30.52945312 14.37845703 31.28515625 14.50097656 C31.85105469 14.6656543 32.41695313 14.83033203 33 15 C33.495 15.99 33.495 15.99 34 17 C11.98981054 15.98522179 11.98981054 15.98522179 3.52734375 7.8515625 C1.51493756 5.41197035 0.60286032 3.08965916 0 0 Z " fill="#201F1F" transform="translate(429,620)"></path><path d="M0 0 C4.64154658 4.29190089 8.16810269 9.16483959 11.8125 14.3125 C12.7087207 15.56643555 12.7087207 15.56643555 13.62304688 16.84570312 C15.0862487 18.89418568 16.54507639 20.94563384 18 23 C17.34 23.66 16.68 24.32 16 25 C15.64695801 24.52578613 15.29391602 24.05157227 14.93017578 23.56298828 C13.33012824 21.41573606 11.72759558 19.27035107 10.125 17.125 C9.56941406 16.37863281 9.01382812 15.63226562 8.44140625 14.86328125 C7.90644531 14.14785156 7.37148438 13.43242188 6.8203125 12.6953125 C6.32805176 12.03547363 5.83579102 11.37563477 5.32861328 10.69580078 C3.96315594 8.88280739 3.96315594 8.88280739 2 7 C0.45473667 4.33871316 0 3.15084005 0 0 Z " fill="#1F1E1E" transform="translate(456,517)"></path><path d="M0 0 C0.99 0.33 1.98 0.66 3 1 C2.33411865 1.70346558 2.33411865 1.70346558 1.65478516 2.42114258 C-0.35741445 4.54946101 -2.3662367 6.68093821 -4.375 8.8125 C-5.07367187 9.55048828 -5.77234375 10.28847656 -6.4921875 11.04882812 C-7.49765625 12.11713867 -7.49765625 12.11713867 -8.5234375 13.20703125 C-9.14138184 13.8616333 -9.75932617 14.51623535 -10.39599609 15.19067383 C-12.17509789 17.11435608 -12.17509789 17.11435608 -14 20 C-14.66 20 -15.32 20 -16 20 C-14.20893191 15.98800747 -11.6085779 13.20252518 -8.65625 10 C-7.05375516 8.0649119 -6.10353004 6.23938105 -5 4 C-2.5625 1.6875 -2.5625 1.6875 0 0 Z " fill="#212121" transform="translate(518,387)"></path><path d="M0 0 C2 1 2 1 2.61889648 2.81933594 C3.22371138 6.28007049 3.10270093 9.74942684 3.0625 13.25 C3.05798828 13.99507813 3.05347656 14.74015625 3.04882812 15.5078125 C3.03709246 17.3385764 3.0191585 19.16929873 3 21 C2.34 21 1.68 21 1 21 C0.07907719 16.34462644 -0.12205997 11.85314567 -0.0625 7.125 C-0.05798828 6.43664062 -0.05347656 5.74828125 -0.04882812 5.0390625 C-0.03716336 3.35933665 -0.01923271 1.67965625 0 0 Z " fill="#191919" transform="translate(357,346)"></path><path d="M0 0 C4.56228327 2.27302369 7.08404157 5.35946627 9.875 9.5 C10.29007813 10.08136719 10.70515625 10.66273438 11.1328125 11.26171875 C12.3046875 12.96875 12.3046875 12.96875 14 16 C13.67 16.99 13.34 17.98 13 19 C11.39553069 16.91689914 9.79141482 14.83352773 8.1875 12.75 C7.50977539 11.87021484 7.50977539 11.87021484 6.81835938 10.97265625 C5.93893661 9.83004857 5.06112 8.68620256 4.18505859 7.54101562 C3.19404921 6.25233593 2.18683296 4.97614086 1.17578125 3.703125 C0 2 0 2 0 0 Z " fill="#191A19" transform="translate(502,455)"></path><path d="M0 0 C0.33 0.99 0.66 1.98 1 3 C-1.28356246 5.34138543 -3.57813374 7.67166982 -5.875 10 C-6.85146484 11.00160156 -6.85146484 11.00160156 -7.84765625 12.0234375 C-8.47285156 12.65507812 -9.09804688 13.28671875 -9.7421875 13.9375 C-10.3182373 14.52402344 -10.89428711 15.11054688 -11.48779297 15.71484375 C-13 17 -13 17 -15 17 C-13.67879172 14.06769807 -12.25361803 12.01335101 -9.9609375 9.765625 C-9.38085938 9.19199219 -8.80078125 8.61835938 -8.203125 8.02734375 C-7.59984375 7.44082031 -6.9965625 6.85429687 -6.375 6.25 C-5.76398437 5.64800781 -5.15296875 5.04601562 -4.5234375 4.42578125 C-3.02011376 2.94594695 -1.51065144 1.47235324 0 0 Z " fill="#222122" transform="translate(526,401)"></path><path d="M0 0 C0.99 0.33 1.98 0.66 3 1 C0.30365386 2.96496834 -2.39430081 4.92748977 -5.09765625 6.8828125 C-6.80685038 8.12962706 -8.50669451 9.38976501 -10.18359375 10.6796875 C-11.73513926 11.86086408 -13.36192933 12.94207936 -15 14 C-15.99 13.67 -16.98 13.34 -18 13 C-16.12653773 11.58126158 -14.25129507 10.16498375 -12.375 8.75 C-11.33085938 7.96109375 -10.28671875 7.1721875 -9.2109375 6.359375 C-2.7890625 1.640625 -2.7890625 1.640625 0 0 Z " fill="#1F1F1F" transform="translate(592,343)"></path><path d="M0 0 C0.33 0.66 0.66 1.32 1 2 C0.34 2 -0.32 2 -1 2 C-1 2.66 -1 3.32 -1 4 C-2.64453125 5.62109375 -2.64453125 5.62109375 -4.8125 7.4375 C-7.82463265 9.97339332 -7.82463265 9.97339332 -10.63671875 12.72265625 C-12 14 -12 14 -14 14 C-14 14.66 -14 15.32 -14 16 C-14.66 15.67 -15.32 15.34 -16 15 C-4.38625592 1.46208531 -4.38625592 1.46208531 0 0 Z " fill="#1A1A1A" transform="translate(480,429)"></path><path d="M0 0 C5.17226615 4.6873662 8.98925493 10.31728181 13 16 C12.34 16.66 11.68 17.32 11 18 C9.15785783 15.5687312 7.32621761 13.13068302 5.5 10.6875 C4.97535156 9.99720703 4.45070313 9.30691406 3.91015625 8.59570312 C3.16572266 7.59506836 3.16572266 7.59506836 2.40625 6.57421875 C1.71499023 5.65515747 1.71499023 5.65515747 1.00976562 4.7175293 C0 3 0 3 0 0 Z " fill="#181819" transform="translate(443,499)"></path><path d="M0 0 C0.66 0 1.32 0 2 0 C3.79083852 2.30166787 5.47259242 4.60238901 7.125 7 C7.82689453 8.00160156 7.82689453 8.00160156 8.54296875 9.0234375 C9.70126236 10.67814266 10.85139765 12.33855307 12 14 C11.34 14.66 10.68 15.32 10 16 C9.16855469 14.84371094 9.16855469 14.84371094 8.3203125 13.6640625 C7.59585937 12.66117188 6.87140625 11.65828125 6.125 10.625 C5.40570313 9.62726562 4.68640625 8.62953125 3.9453125 7.6015625 C2.1005342 5.00530106 2.1005342 5.00530106 0 3 C0 2.01 0 1.02 0 0 Z " fill="#1F201F" transform="translate(504,584)"></path><path d="M0 0 C2.1875 0.3125 2.1875 0.3125 4 1 C-0.09132584 5.50045843 -4.11503422 9.07810802 -10 11 C-10.66 10.67 -11.32 10.34 -12 10 C-11.38511719 9.52949219 -10.77023437 9.05898438 -10.13671875 8.57421875 C-9.32847656 7.95160156 -8.52023437 7.32898438 -7.6875 6.6875 C-6.88699219 6.07261719 -6.08648437 5.45773437 -5.26171875 4.82421875 C-3.00902239 3.11956491 -3.00902239 3.11956491 -1.45703125 1.20703125 C-0.97621094 0.80871094 -0.49539063 0.41039062 0 0 Z " fill="#232424" transform="translate(440,463)"></path><path d="M0 0 C5.1711115 4.54431011 8.44663108 10.15281368 12 16 C11.01 16 10.02 16 9 16 C7.28639296 13.92532204 5.79725808 11.91582114 4.3125 9.6875 C3.89677734 9.09259766 3.48105469 8.49769531 3.05273438 7.88476562 C0 3.39839901 0 3.39839901 0 0 Z " fill="#1B1B1B" transform="translate(485,557)"></path><path d="M0 0 C0.33 0 0.66 0 1 0 C1.89778814 8.74512153 0.15617521 13.92560485 -5 21 C-6.00173581 18.37496941 -6.12834354 17.31146787 -5.0390625 14.66796875 C-4.57242188 13.84941406 -4.10578125 13.03085937 -3.625 12.1875 C-1.37062954 7.97226438 -0.30968743 4.7485406 0 0 Z " fill="#161616" transform="translate(544,344)"></path><path d="M0 0 C0.99 0.33 1.98 0.66 3 1 C2.54625 1.433125 2.0925 1.86625 1.625 2.3125 C-0.20024334 4.10798342 -0.20024334 4.10798342 -2 7 C-3.32467746 7.6837045 -4.65863633 8.34964186 -6 9 C-7.70921589 10.5412312 -7.70921589 10.5412312 -9 12 C-9.66 11.67 -10.32 11.34 -11 11 C-4.27521008 2.77310924 -4.27521008 2.77310924 0 0 Z " fill="#181918" transform="translate(457,449)"></path><path d="M0 0 C0.33 0 0.66 0 1 0 C2.73955334 6.43013467 3.24991456 12.34949576 3 19 C0.25902195 16.25902195 0.01426141 14.49002207 -0.09765625 10.64453125 C-0.08605469 9.37996094 -0.07445312 8.11539063 -0.0625 6.8125 C-0.05347656 5.54019531 -0.04445313 4.26789062 -0.03515625 2.95703125 C-0.02355469 1.98121094 -0.01195312 1.00539063 0 0 Z " fill="#1C1C1C" transform="translate(426,600)"></path><path d="M0 0 C1.65 0.33 3.3 0.66 5 1 C5.625 4.375 5.625 4.375 6 8 C5.34 8.66 4.68 9.32 4 10 C3.34 9.67 2.68 9.34 2 9 C2 7.02 2 5.04 2 3 C1.01 3 0.02 3 -1 3 C-0.67 2.01 -0.34 1.02 0 0 Z " fill="#353331" transform="translate(654,635)"></path><path d="M0 0 C4.54075781 4.14010271 7.71842138 8.82390176 11 14 C10.01 14 9.02 14 8 14 C5.95703125 11.69921875 5.95703125 11.69921875 3.8125 8.6875 C3.09707031 7.70136719 2.38164062 6.71523438 1.64453125 5.69921875 C0 3 0 3 0 0 Z " fill="#1A1A1A" transform="translate(474,542)"></path><path d="M0 0 C0.99 0.33 1.98 0.66 3 1 C1.790774 2.44435328 0.58139761 3.88858104 -0.62890625 5.33203125 C-1.85041082 6.81802115 -3.02271782 8.34414342 -4.1875 9.875 C-5.0846875 10.926875 -5.0846875 10.926875 -6 12 C-6.66 12 -7.32 12 -8 12 C-7.41463247 8.33939179 -5.916761 6.45464836 -3.4375 3.75 C-2.79683594 3.04359375 -2.15617188 2.3371875 -1.49609375 1.609375 C-0.75552734 0.81273437 -0.75552734 0.81273437 0 0 Z " fill="#1F1F1E" transform="translate(529,374)"></path><path d="M0 0 C4.12543646 2.94674033 7.75610863 6.39468009 10 11 C9.67 11.99 9.34 12.98 9 14 C7.4911599 12.23669281 5.9931702 10.46409603 4.5 8.6875 C3.6646875 7.70136719 2.829375 6.71523438 1.96875 5.69921875 C0 3 0 3 0 0 Z " fill="#1D1D1C" transform="translate(591,574)"></path><path d="M0 0 C3.3287315 1.40691484 5.13167372 3.00691581 7.3125 5.875 C7.84488281 6.55304688 8.37726562 7.23109375 8.92578125 7.9296875 C10 10 10 10 9.66796875 12.2578125 C9.44753906 12.83273437 9.22710938 13.40765625 9 14 C7.49412261 12.04594482 5.99521356 10.08718716 4.5 8.125 C4.07074219 7.56941406 3.64148438 7.01382812 3.19921875 6.44140625 C0 2.2265625 0 2.2265625 0 0 Z " fill="#1E1E1D" transform="translate(519,478)"></path><path d="M0 0 C3.59584747 1.44930671 5.18832656 3.22752078 7.3125 6.4375 C7.84488281 7.21996094 8.37726562 8.00242187 8.92578125 8.80859375 C10 11 10 11 9 14 C7.49412261 12.04594482 5.99521356 10.08718716 4.5 8.125 C4.07074219 7.56941406 3.64148438 7.01382813 3.19921875 6.44140625 C0 2.2265625 0 2.2265625 0 0 Z " fill="#1B1B1B" transform="translate(580,560)"></path><path d="M0 0 C0 0.33 0 0.66 0 1 C-2.22771342 1.50643553 -4.45724076 2.0048962 -6.6875 2.5 C-8.54955078 2.91765625 -8.54955078 2.91765625 -10.44921875 3.34375 C-13.42398218 3.89354126 -15.99368602 4.13795705 -19 4 C-18 2 -18 2 -15.125 0.875 C-10.15670455 -0.45264471 -5.09968052 -0.16599322 0 0 Z " fill="#151415" transform="translate(458,329)"></path><path d="M0 0 C0.66 0.99 1.32 1.98 2 3 C1.23721377 4.2964351 0.46443041 5.58699148 -0.3125 6.875 C-0.74175781 7.59429688 -1.17101562 8.31359375 -1.61328125 9.0546875 C-3 11 -3 11 -6 13 C-6.99 12.67 -7.98 12.34 -9 12 C-8.236875 11.2575 -7.47375 10.515 -6.6875 9.75 C-3.59109796 6.58158861 -1.40320511 4.20961534 0 0 Z " fill="#1F1F1F" transform="translate(356,617)"></path><path d="M0 0 C3.96996957 1.32332319 5.76036395 4.0089399 8.14453125 7.24609375 C9 9 9 9 8 12 C6.66081194 10.37982158 5.3288031 8.75370657 4 7.125 C3.2575 6.22007812 2.515 5.31515625 1.75 4.3828125 C0 2 0 2 0 0 Z " fill="#1B1B1B" transform="translate(603,591)"></path><path d="M0 0 C3.96996957 1.32332319 5.76036395 4.0089399 8.14453125 7.24609375 C9 9 9 9 8 12 C6.66081194 10.37982158 5.3288031 8.75370657 4 7.125 C3.2575 6.22007812 2.515 5.31515625 1.75 4.3828125 C0 2 0 2 0 0 Z " fill="#1C1C1B" transform="translate(567,543)"></path><path d="M0 0 C4.40114397 0.50298788 6.71195019 2.08772731 10 5 C9.67 6.32 9.34 7.64 9 9 C8.34 9 7.68 9 7 9 C6.95875 8.401875 6.9175 7.80375 6.875 7.1875 C6.12260099 4.64899168 6.12260099 4.64899168 2.9375 3.25 C1.968125 2.8375 0.99875 2.425 0 2 C0 1.34 0 0.68 0 0 Z " fill="#242324" transform="translate(532,331)"></path><path d="M0 0 C0.66 0.99 1.32 1.98 2 3 C4.87759068 3.80336113 4.87759068 3.80336113 8.125 4.1875 C9.76855469 4.42533203 9.76855469 4.42533203 11.4453125 4.66796875 C12.28835938 4.77753906 13.13140625 4.88710938 14 5 C14 5.33 14 5.66 14 6 C9.71 6 5.42 6 1 6 C0.34 4.68 -0.32 3.36 -1 2 C-0.67 1.34 -0.34 0.68 0 0 Z " fill="#151414" transform="translate(512,324)"></path><path d="M0 0 C3.96996957 1.32332319 5.76036395 4.0089399 8.14453125 7.24609375 C9 9 9 9 8 12 C6.66382103 10.18959679 5.33112616 8.3766216 4 6.5625 C3.2575 5.55316406 2.515 4.54382813 1.75 3.50390625 C0 1 0 1 0 0 Z " fill="#191919" transform="translate(547,516)"></path><path d="M0 0 C4.29951803 1.59241408 6.39671947 4.35540725 9 8 C8.67 8.99 8.34 9.98 8 11 C6.66072279 9.54712339 5.32873153 8.08752741 4 6.625 C3.2575 5.81289063 2.515 5.00078125 1.75 4.1640625 C0 2 0 2 0 0 Z " fill="#1C1B1B" transform="translate(615,607)"></path><path d="M0 0 C3.96996957 1.32332319 5.76036395 4.0089399 8.14453125 7.24609375 C9 9 9 9 8 12 C6.66382103 10.18959679 5.33112616 8.3766216 4 6.5625 C3.2575 5.55316406 2.515 4.54382813 1.75 3.50390625 C0 1 0 1 0 0 Z " fill="#171717" transform="translate(532,496)"></path><path d="M0 0 C1.24703266 3.74109799 0.45460854 4.44429023 -1 8 C-1.3813074 10.32597511 -1.72460254 12.65912158 -2 15 C-3.66730236 12.45000816 -4.00952602 11.14924095 -3.8125 8.0625 C-2.97921092 4.92164117 -1.81272471 2.67968 0 0 Z " fill="#222222" transform="translate(431,339)"></path><path d="M0 0 C0.66 0 1.32 0 2 0 C3.5078125 1.96875 3.5078125 1.96875 5.125 4.5 C5.66382813 5.3353125 6.20265625 6.170625 6.7578125 7.03125 C7.16773438 7.6809375 7.57765625 8.330625 8 9 C7.01 9 6.02 9 5 9 C3.61328125 7.5390625 3.61328125 7.5390625 2.3125 5.625 C1.65701172 4.68527344 1.65701172 4.68527344 0.98828125 3.7265625 C0 2 0 2 0 0 Z " fill="#1A1A1B" transform="translate(435,489)"></path><path d="M0 0 C0.66 0 1.32 0 2 0 C2.93423645 3.01031744 3.04449911 3.86650268 2 7 C-0.31 7.33 -2.62 7.66 -5 8 C-4.34 7.34 -3.68 6.68 -3 6 C-2.01 6 -1.02 6 0 6 C0 4.02 0 2.04 0 0 Z " fill="#20201F" transform="translate(639,321)"></path><path d="M0 0 C0.99 0.33 1.98 0.66 3 1 C0.69 3.64 -1.62 6.28 -4 9 C-4.66 8.67 -5.32 8.34 -6 8 C-4.26440562 4.942048 -2.61527381 2.36620011 0 0 Z " fill="#1C1D1D" transform="translate(499,408)"></path><path d="M0 0 C2.96404505 2.80804268 5.44499019 5.18315774 7 9 C6.01 9 5.02 9 4 9 C0 3.85714286 0 3.85714286 0 0 Z " fill="#1C1C1C" transform="translate(516,600)"></path><path d="M0 0 C0.33 0.66 0.66 1.32 1 2 C-0.98 4.97 -0.98 4.97 -3 8 C-4.32 7.67 -5.64 7.34 -7 7 C-4.69 4.69 -2.38 2.38 0 0 Z " fill="#222121" transform="translate(505,423)"></path><path d="M0 0 C1.5625 1.4375 1.5625 1.4375 3 4 C2.96846324 7.05380927 2.53266629 9.99653222 2 13 C1.67 13 1.34 13 1 13 C0.855625 11.88625 0.71125 10.7725 0.5625 9.625 C0.21627965 6.17857953 0.21627965 6.17857953 -1 4 C-0.5625 1.875 -0.5625 1.875 0 0 Z " fill="#323232" transform="translate(542,338)"></path><path d="M0 0 C2.64752004 2.57784846 4.94432065 4.91648098 7 8 C5.1875 7.8125 5.1875 7.8125 3 7 C0 2.82142857 0 2.82142857 0 0 Z " fill="#1D1D1C" transform="translate(429,620)"></path><path d="M0 0 C5.57142857 5.14285714 5.57142857 5.14285714 6 9 C0.42857143 3.85714286 0.42857143 3.85714286 0 0 Z " fill="#1B1B1B" transform="translate(497,574)"></path><path d="M0 0 C3.36720387 1.39332574 4.9859524 2.9789286 7 6 C6.67 6.66 6.34 7.32 6 8 C1.125 3.375 1.125 3.375 0 0 Z " fill="#212120" transform="translate(497,448)"></path><path d="M0 0 C3.37503669 1.1858237 5.64722731 2.27573689 8 5 C5.69 4.67 3.38 4.34 1 4 C0.67 2.68 0.34 1.36 0 0 Z " fill="#202121" transform="translate(345,332)"></path><path d="M0 0 C0.99 0.33 1.98 0.66 3 1 C0.1875 3.0625 0.1875 3.0625 -3 5 C-3.99 4.67 -4.98 4.34 -6 4 C-3.1875 1.9375 -3.1875 1.9375 0 0 Z " fill="#181716" transform="translate(527,630)"></path><path d="M0 0 C0.66 0 1.32 0 2 0 C3.38938077 1.96147874 4.7260411 3.96166576 6 6 C5.67 6.66 5.34 7.32 5 8 C2.20127563 5.47211993 0.54226981 3.79588866 0 0 Z " fill="#1C1C1D" transform="translate(429,480)"></path><path d="M0 0 C-1.15173355 2.46800047 -2.04783565 4.04783565 -4 6 C-4.99 5.67 -5.98 5.34 -7 5 C-2.25 0 -2.25 0 0 0 Z " fill="#1F1F1E" transform="translate(559,370)"></path><path d="M0 0 C0.99 0.33 1.98 0.66 3 1 C2.01 1 1.02 1 0 1 C0 0.67 0 0.34 0 0 Z " fill="#494A49" transform="translate(448,512)"></path><path d="M0 0 C0.99 0 1.98 0 3 0 C2.67 0.66 2.34 1.32 2 2 C1.34 1.34 0.68 0.68 0 0 Z " fill="#504F4F" transform="translate(529,333)"></path><path d="M0 0 C3 1 3 1 3 1 Z " fill="#5A5958" transform="translate(508,647)"></path><path d="M0 0 C0.66 0.66 1.32 1.32 2 2 C1.34 2 0.68 2 0 2 C0 1.34 0 0.68 0 0 Z " fill="#4E4C4B" transform="translate(505,590)"></path><path d="M0 0 C0.66 0.66 1.32 1.32 2 2 C1.34 2 0.68 2 0 2 C0 1.34 0 0.68 0 0 Z " fill="#4C4C4B" transform="translate(497,579)"></path><path d="M0 0 C0.99 0.495 0.99 0.495 2 1 C1.01 1.495 1.01 1.495 0 2 C0 1.34 0 0.68 0 0 Z " fill="#494948" transform="translate(433,491)"></path><path d="M0 0 C0.66 0.66 1.32 1.32 2 2 C1.34 2 0.68 2 0 2 C0 1.34 0 0.68 0 0 Z " fill="#4D4D4B" transform="translate(518,472)"></path><path d="M0 0 C0.99 0.495 0.99 0.495 2 1 C1.01 1.495 1.01 1.495 0 2 C0 1.34 0 0.68 0 0 Z " fill="#4A4B48" transform="translate(433,464)"></path><path d="" fill="#4C4E4D" transform="translate(0,0)"></path><path d="M0 0 C0.33 0.66 0.66 1.32 1 2 C0.34 1.67 -0.32 1.34 -1 1 C-0.67 0.67 -0.34 0.34 0 0 Z " fill="#4D4D4D" transform="translate(537,336)"></path><path d="M0 0 C2 1 2 1 2 1 Z " fill="#5B5C5C" transform="translate(597,647)"></path><path d="M0 0 C2 1 2 1 2 1 Z " fill="#5A595A" transform="translate(581,647)"></path><path d="M0 0 C2 1 2 1 2 1 Z " fill="#555757" transform="translate(541,647)"></path><path d="M0 0 C2 1 2 1 2 1 Z " fill="#585A58" transform="translate(421,647)"></path><path d="M0 0 C2 1 2 1 2 1 Z " fill="#585B5A" transform="translate(413,647)"></path><path d="M0 0 C2 1 2 1 2 1 Z " fill="#565758" transform="translate(381,647)"></path><path d="M0 0 C2 1 2 1 2 1 Z " fill="#565757" transform="translate(373,647)"></path><path d="M0 0 C2 1 2 1 2 1 Z " fill="#5A5A59" transform="translate(365,647)"></path><path d="M0 0 C2 1 2 1 2 1 Z " fill="#595958" transform="translate(325,633)"></path><path d="" fill="#4B4B4A" transform="translate(0,0)"></path><path d="" fill="#B9B7AD" transform="translate(0,0)"></path><path d="" fill="#BAB6AC" transform="translate(0,0)"></path><path d="M0 0 C2 1 2 1 2 1 Z " fill="#4A4C4B" transform="translate(512,601)"></path><path d="" fill="#595857" transform="translate(0,0)"></path><path d="" fill="#4A4748" transform="translate(0,0)"></path><path d="" fill="#494A49" transform="translate(0,0)"></path><path d="" fill="#4F4F50" transform="translate(0,0)"></path><path d="M0 0 C2 1 2 1 2 1 Z " fill="#484947" transform="translate(436,495)"></path><path d="" fill="#4B4C4C" transform="translate(0,0)"></path><path d="M0 0 C2 1 2 1 2 1 Z " fill="#504F50" transform="translate(565,367)"></path><path d="M0 0 C2 1 2 1 2 1 Z " fill="#504F4F" transform="translate(574,359)"></path><path d="" fill="#4C4D4E" transform="translate(0,0)"></path><path d="" fill="#4E4C4B" transform="translate(0,0)"></path><path d="M0 0 C2 1 2 1 2 1 Z " fill="#555353" transform="translate(336,333)"></path><path d="M0 0 C2 1 2 1 2 1 Z " fill="#545453" transform="translate(513,331)"></path><path d="" fill="#5F5F5F" transform="translate(0,0)"></path><path d="" fill="#777877" transform="translate(0,0)"></path><path d="" fill="#5E5D5B" transform="translate(0,0)"></path><path d="" fill="#5E5D5D" transform="translate(0,0)"></path><path d="" fill="#5A5A5B" transform="translate(0,0)"></path><path d="" fill="#595857" transform="translate(0,0)"></path><path d="" fill="#565858" transform="translate(0,0)"></path><path d="" fill="#5C5B5A" transform="translate(0,0)"></path><path d="" fill="#5A5A5B" transform="translate(0,0)"></path><path d="" fill="#595958" transform="translate(0,0)"></path><path d="" fill="#585959" transform="translate(0,0)"></path><path d="" fill="#585A5A" transform="translate(0,0)"></path><path d="" fill="#CFC8BF" transform="translate(0,0)"></path><path d="" fill="#CFC7C0" transform="translate(0,0)"></path><path d="" fill="#585958" transform="translate(0,0)"></path><path d="" fill="#C6C0B7" transform="translate(0,0)"></path><path d="" fill="#9A968F" transform="translate(0,0)"></path><path d="" fill="#535052" transform="translate(0,0)"></path><path d="" fill="#545351" transform="translate(0,0)"></path><path d="" fill="#545352" transform="translate(0,0)"></path><path d="" fill="#5C5D5C" transform="translate(0,0)"></path><path d="" fill="#BFBCB3" transform="translate(0,0)"></path><path d="" fill="#4B4A4D" transform="translate(0,0)"></path><path d="" fill="#BAB6AD" transform="translate(0,0)"></path><path d="" fill="#B9B7AE" transform="translate(0,0)"></path><path d="" fill="#4D4C4C" transform="translate(0,0)"></path><path d="" fill="#4F4D4C" transform="translate(0,0)"></path><path d="" fill="#504C4D" transform="translate(0,0)"></path><path d="" fill="#4C4B4B" transform="translate(0,0)"></path><path d="" fill="#5A5A59" transform="translate(0,0)"></path><path d="" fill="#D1CCC2" transform="translate(0,0)"></path><path d="" fill="#4B4C4B" transform="translate(0,0)"></path><path d="" fill="#4C4D4A" transform="translate(0,0)"></path><path d="" fill="#4B4A4C" transform="translate(0,0)"></path><path d="" fill="#4B4E4B" transform="translate(0,0)"></path><path d="" fill="#4B4E4B" transform="translate(0,0)"></path><path d="" fill="#CFCEC4" transform="translate(0,0)"></path><path d="" fill="#CFCEC3" transform="translate(0,0)"></path><path d="" fill="#585A59" transform="translate(0,0)"></path><path d="" fill="#5C5A5A" transform="translate(0,0)"></path><path d="" fill="#585857" transform="translate(0,0)"></path><path d="" fill="#4C4B4B" transform="translate(0,0)"></path><path d="" fill="#D2CCC3" transform="translate(0,0)"></path><path d="" fill="#4A4A4A" transform="translate(0,0)"></path><path d="" fill="#545453" transform="translate(0,0)"></path><path d="" fill="#4B4B4A" transform="translate(0,0)"></path><path d="" fill="#C6C0BA" transform="translate(0,0)"></path><path d="" fill="#4C4A4C" transform="translate(0,0)"></path><path d="" fill="#4E4E4F" transform="translate(0,0)"></path><path d="" fill="#505250" transform="translate(0,0)"></path><path d="" fill="#4C494C" transform="translate(0,0)"></path><path d="" fill="#535152" transform="translate(0,0)"></path><path d="" fill="#C9C7BD" transform="translate(0,0)"></path><path d="" fill="#585654" transform="translate(0,0)"></path><path d="" fill="#D0CBC4" transform="translate(0,0)"></path><path d="" fill="#CFC9C0" transform="translate(0,0)"></path><path d="" fill="#D4CFC6" transform="translate(0,0)"></path><path d="" fill="#4B4949" transform="translate(0,0)"></path><path d="" fill="#4C4C4C" transform="translate(0,0)"></path><path d="" fill="#535351" transform="translate(0,0)"></path><path d="" fill="#565454" transform="translate(0,0)"></path><path d="" fill="#535051" transform="translate(0,0)"></path><path d="" fill="#4D4C4C" transform="translate(0,0)"></path><path d="" fill="#4C4A4B" transform="translate(0,0)"></path><path d="" fill="#505251" transform="translate(0,0)"></path><path d="" fill="#4C4D4D" transform="translate(0,0)"></path><path d="" fill="#545353" transform="translate(0,0)"></path><path d="" fill="#4E4C4D" transform="translate(0,0)"></path><path d="" fill="#4C4B4A" transform="translate(0,0)"></path><path d="" fill="#4A4A4B" transform="translate(0,0)"></path><path d="" fill="#4C4B4B" transform="translate(0,0)"></path><path d="" fill="#515351" transform="translate(0,0)"></path><path d="" fill="#494847" transform="translate(0,0)"></path><path d="" fill="#4D4C4B" transform="translate(0,0)"></path><path d="" fill="#525150" transform="translate(0,0)"></path><path d="" fill="#4A4B4C" transform="translate(0,0)"></path><path d="" fill="#484648" transform="translate(0,0)"></path><path d="" fill="#4A4948" transform="translate(0,0)"></path><path d="" fill="#4A4947" transform="translate(0,0)"></path><path d="" fill="#515250" transform="translate(0,0)"></path><path d="" fill="#51504F" transform="translate(0,0)"></path><path d="" fill="#555452" transform="translate(0,0)"></path><path d="" fill="#494949" transform="translate(0,0)"></path><path d="" fill="#494849" transform="translate(0,0)"></path><path d="" fill="#515150" transform="translate(0,0)"></path><path d="" fill="#525050" transform="translate(0,0)"></path><path d="" fill="#504F4F" transform="translate(0,0)"></path><path d="" fill="#4F514F" transform="translate(0,0)"></path><path d="" fill="#484746" transform="translate(0,0)"></path><path d="" fill="#4F514F" transform="translate(0,0)"></path><path d="" fill="#4A4849" transform="translate(0,0)"></path><path d="" fill="#515150" transform="translate(0,0)"></path><path d="" fill="#515251" transform="translate(0,0)"></path><path d="" fill="#4E4D4C" transform="translate(0,0)"></path><path d="" fill="#4C4D4C" transform="translate(0,0)"></path><path d="" fill="#4D4E4E" transform="translate(0,0)"></path><path d="" fill="#4E4E4D" transform="translate(0,0)"></path><path d="" fill="#4C4D4C" transform="translate(0,0)"></path><path d="" fill="#4E4E50" transform="translate(0,0)"></path><path d="" fill="#4B4A49" transform="translate(0,0)"></path><path d="" fill="#4B4C4B" transform="translate(0,0)"></path><path d="" fill="#4E4D4E" transform="translate(0,0)"></path><path d="" fill="#4A4B49" transform="translate(0,0)"></path><path d="" fill="#494B49" transform="translate(0,0)"></path><path d="" fill="#4B4B49" transform="translate(0,0)"></path><path d="" fill="#4B4A4B" transform="translate(0,0)"></path><path d="" fill="#4A4949" transform="translate(0,0)"></path><path d="" fill="#4C494A" transform="translate(0,0)"></path><path d="" fill="#4A4B4A" transform="translate(0,0)"></path><path d="" fill="#4C4C4B" transform="translate(0,0)"></path><path d="" fill="#4B4C4B" transform="translate(0,0)"></path><path d="" fill="#4C4E4F" transform="translate(0,0)"></path><path d="" fill="#4F4E4D" transform="translate(0,0)"></path><path d="" fill="#494C4A" transform="translate(0,0)"></path><path d="" fill="#4D4D4C" transform="translate(0,0)"></path><path d="" fill="#4D4E51" transform="translate(0,0)"></path><path d="" fill="#4B4C4B" transform="translate(0,0)"></path><path d="" fill="#4E4E4C" transform="translate(0,0)"></path><path d="" fill="#514E4E" transform="translate(0,0)"></path><path d="" fill="#4C4D4C" transform="translate(0,0)"></path><path d="" fill="#4D4C4E" transform="translate(0,0)"></path><path d="" fill="#4D4C4C" transform="translate(0,0)"></path><path d="" fill="#4D4D4C" transform="translate(0,0)"></path><path d="" fill="#4D4E4D" transform="translate(0,0)"></path><path d="" fill="#4E4E4E" transform="translate(0,0)"></path><path d="" fill="#4C4B4C" transform="translate(0,0)"></path><path d="" fill="#4C4C4C" transform="translate(0,0)"></path><path d="" fill="#504E4C" transform="translate(0,0)"></path><path d="" fill="#4E4E50" transform="translate(0,0)"></path><path d="" fill="#4E4E4C" transform="translate(0,0)"></path><path d="" fill="#4D4C4C" transform="translate(0,0)"></path><path d="" fill="#505151" transform="translate(0,0)"></path><path d="" fill="#515151" transform="translate(0,0)"></path><path d="" fill="#585759" transform="translate(0,0)"></path><path d="" fill="#525151" transform="translate(0,0)"></path><path d="" fill="#565656" transform="translate(0,0)"></path><path d="" fill="#5E5D5C" transform="translate(0,0)"></path><path d="" fill="#5F5F5E" transform="translate(0,0)"></path><path d="" fill="#5A5B5B" transform="translate(0,0)"></path><path d="" fill="#636563" transform="translate(0,0)"></path><path d="" fill="#5D5E5D" transform="translate(0,0)"></path><path d="" fill="#595858" transform="translate(0,0)"></path></svg>